<svg width="873" height="61" viewBox="0 0 873 61" fill="none" xmlns="http://www.w3.org/2000/svg">
<line y1="28.4348" x2="330" y2="28.4348" stroke="#817067" stroke-width="4"/>
<line x1="543" y1="28.4348" x2="873" y2="28.4348" stroke="#817067" stroke-width="4"/>
<path d="M412.645 22.552C410.437 22.696 400.549 22.84 398.725 22.84C397.525 22.84 395.797 22.744 394.549 22.552L394.261 23.128C394.213 23.272 394.213 23.416 394.405 23.56C395.413 24.328 396.805 25.144 398.101 25.624C399.013 25.24 400.741 24.904 401.653 24.856C403.141 24.76 410.293 24.616 412.645 24.616V22.552ZM416.149 24.856L416.965 23.464C417.109 23.224 417.109 23.032 416.917 22.888C416.485 22.6 415.333 21.976 414.757 21.736C414.517 21.64 414.181 21.64 413.989 21.736L412.309 22.6L412.069 24.616L416.149 24.856ZM394.021 49.096C394.117 49.144 394.261 49.144 394.453 49.048C404.965 43.144 413.653 33.448 416.149 24.856L414.229 23.848L412.069 24.616C409.285 32.488 402.517 41.368 393.397 48.088C393.253 48.28 393.301 48.424 393.397 48.52L394.021 49.096ZM435.733 36.904C436.021 36.904 436.405 36.808 436.645 36.664C436.933 36.424 437.221 35.8 437.221 34.936C437.221 34.552 436.933 34.264 436.501 34.12C435.637 33.928 433.717 33.832 432.277 33.88L430.741 34.792L426.709 34.984V37.048L435.733 36.904ZM426.229 60.184C426.949 57.448 427.381 52.936 427.381 50.152V18.808L427.525 16.312C427.525 15.784 427.333 15.496 426.901 15.304C425.557 14.776 422.533 14.152 420.757 14.104C420.421 14.104 420.277 14.152 420.229 14.296L419.893 15.496C421.573 16.024 423.109 16.936 423.973 17.944V51.352C423.973 53.464 424.069 58.168 424.261 60.184H426.229ZM462.988 45.976C463.324 46.312 463.804 46.744 464.092 46.792C464.62 46.984 465.484 46.696 465.772 46.12C465.868 45.784 465.772 45.352 465.532 44.728C465.1 43.816 464.14 42.232 463.42 41.176L461.26 40.312L453.196 35.896L462.988 45.976ZM461.26 40.312L454.684 34.216L453.196 35.896L460.972 40.6L461.26 40.312ZM458.332 22.744C456.124 22.84 447.052 22.936 445.276 22.936C444.076 22.936 442.396 22.84 441.196 22.648L440.908 23.224C440.812 23.368 440.86 23.512 441.052 23.656C442.012 24.424 443.356 25.24 444.652 25.72C445.516 25.336 447.34 25 448.3 24.952C449.596 24.856 456.124 24.76 458.332 24.808V22.744ZM461.932 24.952L462.892 23.608C463.084 23.368 463.084 23.176 462.844 22.984C462.412 22.744 461.212 22.168 460.636 21.976C460.396 21.88 460.06 21.88 459.82 21.976L458.236 22.744L457.66 24.808L461.932 24.952ZM439.756 48.712C439.852 48.76 439.996 48.76 440.188 48.616C450.22 42.712 458.716 33.352 461.932 24.952L459.916 24.04L457.66 24.808C454.636 32.488 448.012 41.08 439.18 47.704C438.988 47.896 438.988 48.04 439.132 48.184L439.756 48.712ZM482.092 36.808C482.38 36.808 482.764 36.712 483.004 36.568C483.292 36.328 483.58 35.704 483.58 34.84C483.58 34.504 483.292 34.168 482.86 34.072C481.996 33.88 480.076 33.784 478.636 33.832L477.1 34.744L473.068 34.888V36.952L482.092 36.808ZM472.588 60.184C473.308 57.448 473.74 52.936 473.74 50.152V18.808L473.884 16.312C473.884 15.784 473.692 15.496 473.26 15.304C471.916 14.776 468.892 14.152 467.116 14.104C466.78 14.104 466.636 14.152 466.588 14.296L466.252 15.496C467.932 16.024 469.468 16.936 470.332 17.944V51.352C470.332 53.464 470.428 58.168 470.62 60.184H472.588Z" fill="#4C3D35"/>
</svg>
